<?xml version="1.0"?>

<!DOCTYPE svg PUBLIC "-//W3//DTD SVG 1.1//EN"
	"http://www.w3.org/Graphics/SVG/1.1/DTD/svg11.dtd">

<svg xmlns= "http://www.w3.org/2000/svg"
     xmlns:xlink= "http://www.w3.org/1999/xlink"
     version="1.1" width="200" height="200">

	<g fill="none" stroke="black">
		<!-- Kep keret -->
		<line x1="0" y1="0" x2="200" y2="0" stroke-width="2" d="M5 60 l215 0"/>
		<line x1="0" y1="0" x2="0" y2="200" stroke-width="2" d="M5 60 l215 0"/>
		<line x1="0" y1="200" x2="200" y2="200" stroke-width="2" d="M5 60 l215 0"/>
		<line x1="200" y1="0" x2="200" y2="200" stroke-width="2" d="M5 60 l215 0"/>

		<!-- Haz: Alpha Fal -->
		<line x1="50" y1="100" x2="50" y2="130" stroke-width="3" d="M5 60 l215 0"/>
		<line x1="40" y1="92" x2="90" y2="125" stroke-width="3" d="M5 60 l215 0"/>
		<line x1="50" y1="130" x2="90" y2="158" stroke-width="3" d="M5 60 l215 0"/>
		<line x1="90" y1="125" x2="90" y2="158" stroke-width="3" d="M5 60 l215 0"/>

		<!-- Haz: Beta Fal -->
		<line x1="160" y1="120" x2="90" y2="158" stroke-width="3" d="M5 60 l215 0"/>
		<line x1="160" y1="120" x2="160" y2="90" stroke-width="3" d="M5 60 l215 0"/>
		<line x1="90" y1="125" x2="165" y2="87" stroke-width="3" d="M5 60 l215 0"/>

		<!-- Haz: Gamma Fal -->
		<line x1="85" y1="70" x2="40" y2="92" stroke-width="3" d="M5 60 l215 0"/>
		<line x1="85" y1="70" x2="90" y2="125" stroke-width="3" d="M5 60 l215 0"/>

		<!-- Haz: Delta Fal -->
		<line x1="125" y1="53" x2="165" y2="87" stroke-width="3" d="M5 60 l215 0"/>
		<line x1="125" y1="53" x2="85" y2="70" stroke-width="3" d="M5 60 l215 0"/>

		<!-- Haz: Kisablak -->
		<ellipse cx="71" cy="95" rx="4" ry="6" stroke-width="2" d="M5 60 l215 0"/>
		<line x1="69" y1="100" x2="73" y2="90" stroke-width="1" d="M5 60 l215 0"/>
		<line x1="68" y1="93" x2="76" y2="98" stroke-width="1" d="M5 60 l215 0"/>

		<!-- Haz: Kemeny -->
		<line x1="130" y1="90" x2="130" y2="80" stroke-width="2" d="M5 60 l215 0"/>
		<line x1="135" y1="87" x2="135" y2="78" stroke-width="2" d="M5 60 l215 0"/>
		<line x1="125" y1="87" x2="125" y2="78" stroke-width="2" d="M5 60 l215 0"/>
		<line x1="130" y1="80" x2="125" y2="78" stroke-width="2" d="M5 60 l215 0"/>
		<line x1="130" y1="80" x2="135" y2="78" stroke-width="2" d="M5 60 l215 0"/>
		<line x1="125" y1="78" x2="130" y2="76" stroke-width="2" d="M5 60 l215 0"/>
		<line x1="135" y1="78" x2="130" y2="76" stroke-width="2" d="M5 60 l215 0"/>

		<!-- Haz: Ajto -->
		<polygon points="70,125 70,145 80,152 80,132" stroke-width="2" d="M5 60 l215 0"/>
		<line x1="74" y1="140" x2="77" y2="142" stroke-width="1" d="M5 60 l215 0"/>

		<!-- Haz: Ablak1 -->
		<polygon points="55,110 65,118 65,128 55,121" stroke-width="2" d="M5 60 l215 0"/>
		<line x1="60" y1="114" x2="60" y2="124" stroke-width="1" d="M5 60 l215 0"/>
		<line x1="55" y1="115" x2="65" y2="123" stroke-width="1" d="M5 60 l215 0"/>

		<!-- Haz: Ablak2 -->
		<polygon points="100,125 110,120 110,135 100,140" stroke-width="2" d="M5 60 l215 0"/>	
		<line x1="105" y1="122" x2="105" y2="138" stroke-width="1" d="M5 60 l215 0"/>
		<line x1="100" y1="132" x2="110" y2="127" stroke-width="1" d="M5 60 l215 0"/>

		<!-- Haz: Ablak3 -->
		<polygon points="120,115 130,110 130,125 120,130" stroke-width="2" d="M5 60 l215 0"/>	
		<line x1="125" y1="112" x2="125" y2="128" stroke-width="1" d="M5 60 l215 0"/>
		<line x1="120" y1="122" x2="130" y2="117" stroke-width="1" d="M5 60 l215 0"/>

		<!-- Haz: Ablak4 -->
		<polygon points="140,105 150,100 150,115 140,120" stroke-width="2" d="M5 60 l215 0"/>	
		<line x1="145" y1="102" x2="145" y2="118" stroke-width="1" d="M5 60 l215 0"/>
		<line x1="140" y1="112" x2="150" y2="107" stroke-width="1" d="M5 60 l215 0"/>

	</g>

	<ellipse cx="180" cy="85" rx="45" ry="30"/>
	<rect x="175" y="85" width="10" height="80" rx="" ry=""/>

</svg>

